<mxfile host="app.diagrams.net" modified="2021-05-22T16:12:24.967Z" agent="5.0 (Windows NT 10.0; Win64; x64) AppleWebKit/537.36 (KHTML, like Gecko) Chrome/90.0.4430.212 Safari/537.36" etag="wfbnO_H5ezVRtLLJONFJ" version="14.5.8" type="github">
  <diagram id="S4vm4kKVCdtEnfD78dq2" name="Page-1">
    <mxGraphModel dx="1029" dy="556" grid="1" gridSize="10" guides="1" tooltips="1" connect="1" arrows="1" fold="1" page="1" pageScale="1" pageWidth="827" pageHeight="1169" math="0" shadow="0">
      <root>
        <mxCell id="0" />
        <mxCell id="1" parent="0" />
        <mxCell id="H-3Jn0qCWyMr7MfSLs5h-48" value="" style="rounded=0;whiteSpace=wrap;html=1;" vertex="1" parent="1">
          <mxGeometry x="40" y="320" width="660" height="320" as="geometry" />
        </mxCell>
        <mxCell id="H-3Jn0qCWyMr7MfSLs5h-28" value="" style="rounded=0;whiteSpace=wrap;html=1;" vertex="1" parent="1">
          <mxGeometry x="40" y="110" width="660" height="200" as="geometry" />
        </mxCell>
        <mxCell id="H-3Jn0qCWyMr7MfSLs5h-10" value="" style="rounded=0;whiteSpace=wrap;html=1;" vertex="1" parent="1">
          <mxGeometry x="560" y="10" width="120" height="60" as="geometry" />
        </mxCell>
        <mxCell id="H-3Jn0qCWyMr7MfSLs5h-9" value="" style="rounded=0;whiteSpace=wrap;html=1;" vertex="1" parent="1">
          <mxGeometry x="320" y="10" width="120" height="60" as="geometry" />
        </mxCell>
        <mxCell id="H-3Jn0qCWyMr7MfSLs5h-1" value="" style="rounded=0;whiteSpace=wrap;html=1;" vertex="1" parent="1">
          <mxGeometry x="80" y="10" width="120" height="60" as="geometry" />
        </mxCell>
        <mxCell id="H-3Jn0qCWyMr7MfSLs5h-5" value="&lt;font style=&quot;font-size: 18px&quot;&gt;USER&lt;/font&gt;" style="text;html=1;strokeColor=none;fillColor=none;align=center;verticalAlign=middle;whiteSpace=wrap;rounded=0;" vertex="1" parent="1">
          <mxGeometry x="80" y="10" width="120" height="60" as="geometry" />
        </mxCell>
        <mxCell id="H-3Jn0qCWyMr7MfSLs5h-7" value="&lt;font style=&quot;font-size: 18px&quot;&gt;SYSTEM&lt;/font&gt;" style="text;html=1;strokeColor=none;fillColor=none;align=center;verticalAlign=middle;whiteSpace=wrap;rounded=0;" vertex="1" parent="1">
          <mxGeometry x="320" y="10" width="120" height="60" as="geometry" />
        </mxCell>
        <mxCell id="H-3Jn0qCWyMr7MfSLs5h-8" value="&lt;font style=&quot;font-size: 18px&quot;&gt;DATA BASE&lt;/font&gt;" style="text;html=1;strokeColor=none;fillColor=none;align=center;verticalAlign=middle;whiteSpace=wrap;rounded=0;" vertex="1" parent="1">
          <mxGeometry x="560" y="10" width="120" height="60" as="geometry" />
        </mxCell>
        <mxCell id="H-3Jn0qCWyMr7MfSLs5h-11" value="" style="endArrow=none;dashed=1;html=1;entryX=0.5;entryY=1;entryDx=0;entryDy=0;" edge="1" parent="1" target="H-3Jn0qCWyMr7MfSLs5h-5">
          <mxGeometry width="50" height="50" relative="1" as="geometry">
            <mxPoint x="140" y="670" as="sourcePoint" />
            <mxPoint x="440" y="250" as="targetPoint" />
            <Array as="points">
              <mxPoint x="140" y="280" />
            </Array>
          </mxGeometry>
        </mxCell>
        <mxCell id="H-3Jn0qCWyMr7MfSLs5h-12" value="" style="endArrow=none;dashed=1;html=1;entryX=0.5;entryY=1;entryDx=0;entryDy=0;" edge="1" parent="1" source="H-3Jn0qCWyMr7MfSLs5h-19" target="H-3Jn0qCWyMr7MfSLs5h-8">
          <mxGeometry width="50" height="50" relative="1" as="geometry">
            <mxPoint x="619.5" y="520" as="sourcePoint" />
            <mxPoint x="619.5" y="100" as="targetPoint" />
            <Array as="points" />
          </mxGeometry>
        </mxCell>
        <mxCell id="H-3Jn0qCWyMr7MfSLs5h-13" value="" style="endArrow=none;dashed=1;html=1;entryX=0.5;entryY=1;entryDx=0;entryDy=0;" edge="1" parent="1" target="H-3Jn0qCWyMr7MfSLs5h-7">
          <mxGeometry width="50" height="50" relative="1" as="geometry">
            <mxPoint x="380" y="670" as="sourcePoint" />
            <mxPoint x="379.5" y="100" as="targetPoint" />
            <Array as="points">
              <mxPoint x="379.5" y="280" />
            </Array>
          </mxGeometry>
        </mxCell>
        <mxCell id="H-3Jn0qCWyMr7MfSLs5h-14" value="" style="rounded=0;whiteSpace=wrap;html=1;rotation=90;" vertex="1" parent="1">
          <mxGeometry x="320" y="210" width="120" height="20" as="geometry" />
        </mxCell>
        <mxCell id="H-3Jn0qCWyMr7MfSLs5h-16" value="" style="endArrow=classic;html=1;" edge="1" parent="1">
          <mxGeometry width="50" height="50" relative="1" as="geometry">
            <mxPoint x="140" y="160" as="sourcePoint" />
            <mxPoint x="370" y="160" as="targetPoint" />
          </mxGeometry>
        </mxCell>
        <mxCell id="H-3Jn0qCWyMr7MfSLs5h-17" value="&lt;font style=&quot;font-size: 14px&quot;&gt;Show the QR code&lt;/font&gt;" style="text;html=1;strokeColor=none;fillColor=none;align=center;verticalAlign=middle;whiteSpace=wrap;rounded=0;" vertex="1" parent="1">
          <mxGeometry x="140" y="140" width="230" height="20" as="geometry" />
        </mxCell>
        <mxCell id="H-3Jn0qCWyMr7MfSLs5h-18" value="" style="endArrow=classic;html=1;" edge="1" parent="1">
          <mxGeometry width="50" height="50" relative="1" as="geometry">
            <mxPoint x="390" y="190" as="sourcePoint" />
            <mxPoint x="610" y="190" as="targetPoint" />
          </mxGeometry>
        </mxCell>
        <mxCell id="H-3Jn0qCWyMr7MfSLs5h-19" value="" style="rounded=0;whiteSpace=wrap;html=1;rotation=90;" vertex="1" parent="1">
          <mxGeometry x="590" y="210" width="60" height="20" as="geometry" />
        </mxCell>
        <mxCell id="H-3Jn0qCWyMr7MfSLs5h-20" value="" style="endArrow=none;dashed=1;html=1;" edge="1" parent="1" source="H-3Jn0qCWyMr7MfSLs5h-31" target="H-3Jn0qCWyMr7MfSLs5h-19">
          <mxGeometry width="50" height="50" relative="1" as="geometry">
            <mxPoint x="620" y="640" as="sourcePoint" />
            <mxPoint x="619.5" y="100" as="targetPoint" />
            <Array as="points" />
          </mxGeometry>
        </mxCell>
        <mxCell id="H-3Jn0qCWyMr7MfSLs5h-21" value="&lt;font style=&quot;font-size: 14px&quot;&gt;Scan the QR code&lt;/font&gt;" style="text;html=1;strokeColor=none;fillColor=none;align=center;verticalAlign=middle;whiteSpace=wrap;rounded=0;" vertex="1" parent="1">
          <mxGeometry x="370" y="160" width="230" height="20" as="geometry" />
        </mxCell>
        <mxCell id="H-3Jn0qCWyMr7MfSLs5h-22" style="edgeStyle=orthogonalEdgeStyle;rounded=0;orthogonalLoop=1;jettySize=auto;html=1;exitX=1;exitY=0.5;exitDx=0;exitDy=0;" edge="1" parent="1" source="H-3Jn0qCWyMr7MfSLs5h-19" target="H-3Jn0qCWyMr7MfSLs5h-19">
          <mxGeometry relative="1" as="geometry" />
        </mxCell>
        <mxCell id="H-3Jn0qCWyMr7MfSLs5h-23" value="return" style="html=1;verticalAlign=bottom;endArrow=open;dashed=1;endSize=8;entryX=0.678;entryY=-0.16;entryDx=0;entryDy=0;entryPerimeter=0;" edge="1" parent="1" target="H-3Jn0qCWyMr7MfSLs5h-14">
          <mxGeometry x="0.0148" y="1" relative="1" as="geometry">
            <mxPoint x="610" y="240" as="sourcePoint" />
            <mxPoint x="530" y="240" as="targetPoint" />
            <Array as="points">
              <mxPoint x="560" y="241" />
            </Array>
            <mxPoint as="offset" />
          </mxGeometry>
        </mxCell>
        <mxCell id="H-3Jn0qCWyMr7MfSLs5h-24" value="&lt;font style=&quot;font-size: 14px&quot;&gt;Results&lt;/font&gt;" style="text;html=1;strokeColor=none;fillColor=none;align=center;verticalAlign=middle;whiteSpace=wrap;rounded=0;" vertex="1" parent="1">
          <mxGeometry x="450" y="240" width="100" height="20" as="geometry" />
        </mxCell>
        <mxCell id="H-3Jn0qCWyMr7MfSLs5h-26" value="return" style="html=1;verticalAlign=bottom;endArrow=open;dashed=1;endSize=8;" edge="1" parent="1">
          <mxGeometry x="0.0148" y="1" relative="1" as="geometry">
            <mxPoint x="376.8" y="280" as="sourcePoint" />
            <mxPoint x="140" y="281" as="targetPoint" />
            <mxPoint as="offset" />
          </mxGeometry>
        </mxCell>
        <mxCell id="H-3Jn0qCWyMr7MfSLs5h-27" value="&lt;font style=&quot;font-size: 14px&quot;&gt;&lt;font&gt;Confirm &lt;/font&gt;&lt;font&gt;Login&lt;/font&gt;&lt;/font&gt;" style="text;html=1;strokeColor=none;fillColor=none;align=center;verticalAlign=middle;whiteSpace=wrap;rounded=0;" vertex="1" parent="1">
          <mxGeometry x="170" y="280" width="160" height="20" as="geometry" />
        </mxCell>
        <mxCell id="H-3Jn0qCWyMr7MfSLs5h-29" value="&lt;font style=&quot;font-size: 14px&quot;&gt;[If have a QR]&amp;nbsp;&lt;/font&gt;" style="text;html=1;strokeColor=none;fillColor=none;align=center;verticalAlign=middle;whiteSpace=wrap;rounded=0;" vertex="1" parent="1">
          <mxGeometry x="140" y="110" width="100" height="20" as="geometry" />
        </mxCell>
        <mxCell id="H-3Jn0qCWyMr7MfSLs5h-30" value="" style="rounded=0;whiteSpace=wrap;html=1;rotation=90;" vertex="1" parent="1">
          <mxGeometry x="320" y="410" width="120" height="20" as="geometry" />
        </mxCell>
        <mxCell id="H-3Jn0qCWyMr7MfSLs5h-31" value="" style="rounded=0;whiteSpace=wrap;html=1;rotation=90;" vertex="1" parent="1">
          <mxGeometry x="590" y="410" width="60" height="20" as="geometry" />
        </mxCell>
        <mxCell id="H-3Jn0qCWyMr7MfSLs5h-32" value="" style="endArrow=none;dashed=1;html=1;" edge="1" parent="1" target="H-3Jn0qCWyMr7MfSLs5h-31">
          <mxGeometry width="50" height="50" relative="1" as="geometry">
            <mxPoint x="620" y="660" as="sourcePoint" />
            <mxPoint x="620" y="250" as="targetPoint" />
            <Array as="points" />
          </mxGeometry>
        </mxCell>
        <mxCell id="H-3Jn0qCWyMr7MfSLs5h-33" value="" style="endArrow=classic;html=1;entryX=0;entryY=1;entryDx=0;entryDy=0;" edge="1" parent="1" target="H-3Jn0qCWyMr7MfSLs5h-30">
          <mxGeometry width="50" height="50" relative="1" as="geometry">
            <mxPoint x="140" y="360" as="sourcePoint" />
            <mxPoint x="190" y="310" as="targetPoint" />
          </mxGeometry>
        </mxCell>
        <mxCell id="H-3Jn0qCWyMr7MfSLs5h-34" value="&lt;font style=&quot;font-size: 14px&quot;&gt;Login Information&lt;/font&gt;" style="text;html=1;strokeColor=none;fillColor=none;align=center;verticalAlign=middle;whiteSpace=wrap;rounded=0;" vertex="1" parent="1">
          <mxGeometry x="150" y="360" width="190" height="20" as="geometry" />
        </mxCell>
        <mxCell id="H-3Jn0qCWyMr7MfSLs5h-36" value="" style="shape=card;whiteSpace=wrap;html=1;rotation=-180;" vertex="1" parent="1">
          <mxGeometry x="40" y="110" width="80" height="40" as="geometry" />
        </mxCell>
        <mxCell id="H-3Jn0qCWyMr7MfSLs5h-37" value="&lt;font style=&quot;font-size: 14px&quot;&gt;Alt&lt;/font&gt;" style="text;html=1;strokeColor=none;fillColor=none;align=center;verticalAlign=middle;whiteSpace=wrap;rounded=0;" vertex="1" parent="1">
          <mxGeometry x="50" y="120" width="40" height="20" as="geometry" />
        </mxCell>
        <mxCell id="H-3Jn0qCWyMr7MfSLs5h-38" value="" style="endArrow=classic;html=1;" edge="1" parent="1">
          <mxGeometry width="50" height="50" relative="1" as="geometry">
            <mxPoint x="390" y="390" as="sourcePoint" />
            <mxPoint x="610" y="390" as="targetPoint" />
          </mxGeometry>
        </mxCell>
        <mxCell id="H-3Jn0qCWyMr7MfSLs5h-39" value="return" style="html=1;verticalAlign=bottom;endArrow=open;dashed=1;endSize=8;entryX=0.678;entryY=-0.16;entryDx=0;entryDy=0;entryPerimeter=0;" edge="1" parent="1">
          <mxGeometry x="0.0148" y="1" relative="1" as="geometry">
            <mxPoint x="608.4" y="450" as="sourcePoint" />
            <mxPoint x="391.6" y="451.3599999999999" as="targetPoint" />
            <mxPoint as="offset" />
          </mxGeometry>
        </mxCell>
        <mxCell id="H-3Jn0qCWyMr7MfSLs5h-40" value="return" style="html=1;verticalAlign=bottom;endArrow=open;dashed=1;endSize=8;" edge="1" parent="1">
          <mxGeometry x="0.0148" y="1" relative="1" as="geometry">
            <mxPoint x="373.4" y="480" as="sourcePoint" />
            <mxPoint x="136.6" y="481" as="targetPoint" />
            <mxPoint as="offset" />
          </mxGeometry>
        </mxCell>
        <mxCell id="H-3Jn0qCWyMr7MfSLs5h-41" value="&lt;font style=&quot;font-size: 14px&quot;&gt;&lt;font&gt;Confirm &lt;/font&gt;&lt;font&gt;Login&lt;/font&gt;&lt;/font&gt;" style="text;html=1;strokeColor=none;fillColor=none;align=center;verticalAlign=middle;whiteSpace=wrap;rounded=0;" vertex="1" parent="1">
          <mxGeometry x="175" y="480" width="160" height="20" as="geometry" />
        </mxCell>
        <mxCell id="H-3Jn0qCWyMr7MfSLs5h-42" value="&lt;font style=&quot;font-size: 14px&quot;&gt;Results&lt;/font&gt;" style="text;html=1;strokeColor=none;fillColor=none;align=center;verticalAlign=middle;whiteSpace=wrap;rounded=0;" vertex="1" parent="1">
          <mxGeometry x="450" y="450" width="100" height="20" as="geometry" />
        </mxCell>
        <mxCell id="H-3Jn0qCWyMr7MfSLs5h-43" value="&lt;font style=&quot;font-size: 14px&quot;&gt;Compare Login Details&lt;/font&gt;" style="text;html=1;strokeColor=none;fillColor=none;align=center;verticalAlign=middle;whiteSpace=wrap;rounded=0;" vertex="1" parent="1">
          <mxGeometry x="385" y="370" width="230" height="20" as="geometry" />
        </mxCell>
        <mxCell id="H-3Jn0qCWyMr7MfSLs5h-46" value="return" style="html=1;verticalAlign=bottom;endArrow=open;dashed=1;endSize=8;" edge="1" parent="1">
          <mxGeometry x="0.0148" y="1" relative="1" as="geometry">
            <mxPoint x="376.80000000000007" y="584" as="sourcePoint" />
            <mxPoint x="139.99999999999991" y="585" as="targetPoint" />
            <mxPoint as="offset" />
          </mxGeometry>
        </mxCell>
        <mxCell id="H-3Jn0qCWyMr7MfSLs5h-47" value="&lt;font style=&quot;font-size: 14px&quot;&gt;Reject Login&lt;/font&gt;" style="text;html=1;align=center;verticalAlign=middle;resizable=0;points=[];autosize=1;strokeColor=none;" vertex="1" parent="1">
          <mxGeometry x="210" y="585" width="90" height="20" as="geometry" />
        </mxCell>
        <mxCell id="H-3Jn0qCWyMr7MfSLs5h-50" value="" style="shape=card;whiteSpace=wrap;html=1;rotation=-180;" vertex="1" parent="1">
          <mxGeometry x="40" y="320" width="80" height="40" as="geometry" />
        </mxCell>
        <mxCell id="H-3Jn0qCWyMr7MfSLs5h-52" value="&lt;font style=&quot;font-size: 14px&quot;&gt;Alt&lt;/font&gt;" style="text;html=1;strokeColor=none;fillColor=none;align=center;verticalAlign=middle;whiteSpace=wrap;rounded=0;" vertex="1" parent="1">
          <mxGeometry x="50" y="330" width="40" height="20" as="geometry" />
        </mxCell>
        <mxCell id="H-3Jn0qCWyMr7MfSLs5h-59" value="" style="line;strokeWidth=2;html=1;" vertex="1" parent="1">
          <mxGeometry x="40" y="520" width="660" height="10" as="geometry" />
        </mxCell>
        <mxCell id="H-3Jn0qCWyMr7MfSLs5h-60" value="&lt;font style=&quot;font-size: 14px&quot;&gt;[Else]&lt;/font&gt;" style="text;html=1;strokeColor=none;fillColor=none;align=center;verticalAlign=middle;whiteSpace=wrap;rounded=0;" vertex="1" parent="1">
          <mxGeometry x="70" y="530" width="40" height="20" as="geometry" />
        </mxCell>
        <mxCell id="H-3Jn0qCWyMr7MfSLs5h-61" value="&lt;font style=&quot;font-size: 14px&quot;&gt;[If haven&#39;t a QR]&amp;nbsp;&lt;/font&gt;" style="text;html=1;strokeColor=none;fillColor=none;align=center;verticalAlign=middle;whiteSpace=wrap;rounded=0;" vertex="1" parent="1">
          <mxGeometry x="140" y="320" width="120" height="20" as="geometry" />
        </mxCell>
      </root>
    </mxGraphModel>
  </diagram>
</mxfile>
